<?xml version="1.0" encoding="UTF-8"?>
<svg xmlns="http://www.w3.org/2000/svg" width="600" height="400">
<rect width="600" height="400" fill="#eee"/>
<path d="m305.85 246.3h-31.922c-0.2229-0.74117-1.25352-3.44135-3.09194-8.1006-1.83846-4.65908-2.75768-8.73586-2.75764-12.2303-0.00004-6.67098 0.97488-13.0773 2.92479-19.219 1.94979-6.14154 4.81887-11.8861 8.60724-17.2336 3.78825-5.3473 11.2813-13.8979 22.4791-25.6519 11.1977-11.7536 16.7966-21.4426 16.7967-29.0668-0.00013-14.8244-10.1951-22.2367-30.585-22.2369-9.91651 0.00021-20.2786 4.71232-31.0864 14.1363l-17.2145-30.6552c14.3732-10.6947 33.259-16.0421 56.6574-16.0424 18.05 0.00024 33.1197 4.76529 45.2089 14.2952 12.089 9.53032 18.1336 22.1842 18.1337 37.9616-0.00015 10.801-2.20069 19.934-6.60166 27.3991-4.40126 7.4654-12.145 16.2278-23.2312 26.2872-11.0864 10.0597-18.3009 18.425-21.6434 25.096-3.34269 6.67117-5.014 13.9776-5.01392 21.9192-0.00008 1.69432 0.77987 6.14173 2.33983 13.3422zm-14.2061 21.6016c7.57651 0.00005 14.0111 2.54141 19.3036 7.62409 5.2924 5.08276 7.93862 11.2244 7.93875 18.4249-0.00013 7.20056-2.64635 13.3422-7.93875 18.4249-5.29253 5.08273-11.7271 7.62409-19.3036 7.62409-7.57669 0-14.0391-2.54136-19.3872-7.62409-5.34826-5.08273-8.02232-11.2243-8.02228-18.4249-0.00004-7.20047 2.67402-13.3421 8.02228-18.4249 5.34812-5.08268 11.8105-7.62404 19.3872-7.62409z" fill="#000"/>
</svg>